<svg width="64" height="40" viewBox="0 0 64 40" fill="none" xmlns="http://www.w3.org/2000/svg">
<path d="M0 6.74603C0 3.0203 3.0203 0 6.74603 0H57.254C60.9797 0 64 3.0203 64 6.74603V33.254C64 36.9797 60.9797 40 57.254 40H6.74603C3.0203 40 0 36.9797 0 33.254V6.74603Z" fill="white"/>
<path d="M52.86 10.1191H39.4143C39.2229 10.1191 39.1218 10.349 39.2497 10.4936L42.028 13.6376C42.0698 13.6851 42.1298 13.7122 42.1926 13.7122H44.0084C44.1305 13.7122 44.2296 13.8128 44.2296 13.9368V29.6565C44.2296 29.7805 44.3288 29.8811 44.4509 29.8811H48.0666C48.1888 29.8811 48.2879 29.7805 48.2879 29.6565V13.9368C48.2879 13.8128 48.3868 13.7122 48.5092 13.7122H52.86C52.9822 13.7122 53.0813 13.6117 53.0813 13.4876V10.3437C53.0813 10.2197 52.9822 10.1191 52.86 10.1191Z" fill="#021198"/>
<path fill-rule="evenodd" clip-rule="evenodd" d="M29.4633 27.3815C29.3416 27.505 29.3015 27.689 29.3605 27.8531L29.9816 29.5795C30.0343 29.726 29.9274 29.8811 29.7737 29.8811H26.6811C26.5881 29.8811 26.505 29.822 26.4732 29.7332L19.5528 10.4205C19.5003 10.274 19.6072 10.1191 19.7607 10.1191H22.8263C22.9192 10.1191 23.0023 10.1781 23.0341 10.2667L25.6968 17.6685C25.7154 17.7201 25.7637 17.7544 25.8179 17.7544C25.8761 17.7544 25.927 17.7148 25.9429 17.6579C26.0701 17.2033 26.2355 16.765 26.4353 16.3468C26.5206 16.1684 26.4905 15.9536 26.3523 15.8134L25.4707 14.9187C25.2978 14.7433 25.2978 14.4589 25.4707 14.2836L27.9743 11.7429C28.1472 11.5675 28.4274 11.5675 28.6002 11.7429L29.4392 12.5942C29.58 12.7371 29.797 12.7658 29.9742 12.6735C30.3272 12.4896 30.6956 12.3316 31.0767 12.2021C31.2637 12.1386 31.3946 11.9639 31.3946 11.7638V10.5683C31.3946 10.3202 31.5928 10.1191 31.8372 10.1191H35.3778C35.6224 10.1191 35.8204 10.3202 35.8204 10.5683V11.7638C35.8204 11.9639 35.9512 12.1386 36.1382 12.2021C36.5195 12.3316 36.8877 12.4896 37.2409 12.6735C37.4179 12.7658 37.635 12.7371 37.7758 12.5942L38.6147 11.7429C38.7875 11.5675 39.0679 11.5675 39.2407 11.7429L41.7444 14.2835C41.9173 14.4589 41.9173 14.7433 41.7444 14.9187L40.8626 15.8134C40.7245 15.9536 40.6944 16.1684 40.7796 16.3468C40.9451 16.693 41.087 17.0529 41.2031 17.4246C41.2636 17.618 41.4373 17.7544 41.6373 17.7544H42.9018C43.1463 17.7544 43.3444 17.9555 43.3444 18.2036V21.7966C43.3444 22.0447 43.1463 22.2458 42.9018 22.2458H41.5517C41.3572 22.2458 41.1868 22.375 41.1222 22.561C41.0027 22.9043 40.8612 23.2369 40.6993 23.5572C40.6081 23.737 40.6364 23.9572 40.7774 24.1001L41.7444 25.0815C41.9173 25.2569 41.9173 25.5413 41.7444 25.7166L39.2407 28.2574C39.0679 28.4327 38.7877 28.4327 38.6147 28.2574L37.6049 27.2326C37.4669 27.0925 37.2551 27.0619 37.0794 27.1484C36.776 27.2978 36.4617 27.4281 36.1382 27.538C35.9512 27.6016 35.8204 27.7763 35.8204 27.9764V29.4319C35.8204 29.68 35.6224 29.8811 35.3778 29.8811H31.8372C31.5928 29.8811 31.3946 29.68 31.3946 29.4319V27.9764C31.3946 27.7763 31.2637 27.6016 31.0767 27.538C30.7533 27.4281 30.439 27.2978 30.1356 27.1484C29.9599 27.0619 29.7481 27.0925 29.61 27.2326L29.4633 27.3815ZM38.0334 19.8701C38.0334 22.3506 36.0519 24.3614 33.6075 24.3614C31.1632 24.3614 29.1817 22.3506 29.1817 19.8701C29.1817 17.3896 31.1632 15.3787 33.6075 15.3787C36.0519 15.3787 38.0334 17.3896 38.0334 19.8701Z" fill="#021198"/>
<path d="M20.7431 16.0369C20.7618 15.9857 20.7615 15.9293 20.7422 15.8782L18.7623 10.6545C18.69 10.4637 18.4246 10.4622 18.3502 10.6521L10.9346 29.573C10.8768 29.7205 10.9838 29.8806 11.1402 29.8806H15.5285C15.621 29.8806 15.7038 29.8221 15.736 29.7341L20.7431 16.0369Z" fill="#021198"/>
</svg>
